inDegrees=yes
name=ik_lifting_orientations
DataType=double
version=3
OpenSimVersion=4.5-2024-01-10-34fd6af
endheader
time	pelvis_tilt	pelvis_list	pelvis_rotation	pelvis_tx	pelvis_ty	pelvis_tz	hip_flexion_r	hip_adduction_r	hip_rotation_r	knee_angle_r	knee_angle_r_beta	ankle_angle_r	subtalar_angle_r	mtp_angle_r	hip_flexion_l	hip_adduction_l	hip_rotation_l	knee_angle_l	knee_angle_l_beta	ankle_angle_l	subtalar_angle_l	mtp_angle_l	lumbar_extension	lumbar_bending	lumbar_rotation	arm_flex_r	arm_add_r	arm_rot_r	elbow_flex_r	pro_sup_r	wrist_flex_r	wrist_dev_r	arm_flex_l	arm_add_l	arm_rot_l	elbow_flex_l	pro_sup_l	wrist_flex_l	wrist_dev_l
1.4	10.58329666347663	26.17569733077826	-111.6473187207796	0	0.9399999998679526	0	45.1319078587548	-10.04942893930768	0	60.37580417881163	1.053756571459614	-5.009102727575403	0	0	45.1319078587548	-10.04942893930768	0	60.37580417881163	1.053756571459614	-5.009102727575403	0	0	58.9470730867666	0.6924527811644052	40.87354496185637	-24.28525769505224	15.72986871487423	-15.96251276214924	1.448901289002679	0.5819675843914938	0	0	0	-12.21880020052166	0	89.43608982230398	0.5819675843914938	0	0
1.41	10.48736649628913	25.93457188712966	-111.380396321526	0	0.9399999998679526	0	45.1318749065688	-10.04938580895751	0	60.3757305037353	1.053755285586956	-5.009092367334246	0	0	45.1318749065688	-10.04938580895751	0	60.3757305037353	1.053755285586956	-5.009092367334246	0	0	58.69040318500009	0.4209931940955932	40.73882381151419	-23.93403594244089	15.42606016477623	-15.73927385683652	2.017824921844786	0.5818664094861634	0	0	0	-12.21915617388929	0	89.43618782726131	0.5818664094861634	0	0
1.42	10.49700755113066	25.80753406616767	-111.2329337982173	0	0.9399999998679526	0	45.13183146295329	-10.04932888263719	0	60.37563351138689	1.053753592751127	-5.009078692614878	0	0	45.13183146295329	-10.04932888263719	0	60.37563351138689	1.053753592751127	-5.009078692614878	0	0	58.5131234529856	0.2186762946018524	40.65262827428217	-23.56388522799407	15.00888174549183	-15.47329922705779	2.599431115228231	0.5817330874237771	0	0	0	-12.21962504812355	0	89.43631697216132	0.5817330874237771	0	0
1.43	10.5965286473409	25.66991827972417	-111.0761165416603	0	0.9399999998679526	0	45.13111003202345	-10.04870084166851	0	60.37356812262277	1.053717544916859	-5.00894169393615	0	0	45.13111003202345	-10.04870084166851	0	60.37356812262277	1.053717544916859	-5.00894169393615	0	0	58.29233142625662	0.006976538858504091	40.64017581054436	-23.15449912384311	14.45050840813922	-15.29898560440966	3.282651979231746	0.5792797541562942	0	0	0	-12.22897529591708	0	89.4386934398748	0.5792797541562942	0	0
1.44	10.58996354657678	25.47431497740823	-110.8959180939716	0	0.9399999998679526	0	45.13106539431428	-10.04864286117359	0	60.37346841156297	1.053715804630565	-5.008927805832969	0	0	45.13106539431428	-10.04864286117359	0	60.37346841156297	1.053715804630565	-5.008927805832969	0	0	57.91984728790771	-0.1280738236262635	40.64955835993417	-22.58417958866652	13.86191045258881	-15.32441212076787	3.80230304252928	0.5791425549040172	0	0	0	-12.22945832396789	0	89.43882634048903	0.5791425549040172	0	0
1.45	10.46649149512211	25.11625804324633	-110.8019610628217	0	0.9399999998679526	0	45.13101635449298	-10.0485791893892	0	60.37335889519683	1.053713893209391	-5.008912558692116	0	0	45.13101635449298	-10.0485791893892	0	60.37335889519683	1.053713893209391	-5.008912558692116	0	0	57.47533376926316	-0.0892030971287243	40.68916414973558	-22.14525788696044	13.27686068163231	-15.2649554878166	4.306929336538379	0.5789918287378555	0	0	0	-12.22998895223534	0	89.43897234420075	0.5789918287378555	0	0
1.46	10.50814662265925	24.79672549816003	-110.9087809391365	0	0.9399999998679526	0	45.13097916431193	-10.04853104496345	0	60.37327570201695	1.053712441214487	-5.008901038912236	0	0	45.13097916431193	-10.04853104496345	0	60.37327570201695	1.053712441214487	-5.008901038912236	0	0	56.95137292659101	-0.07190604956407162	40.83566318561419	-21.61097698477163	12.5357678184474	-15.05124211247684	4.85539292981909	0.5788774398336829	0	0	0	-12.23039189177961	0	89.43908314914627	0.5788774398336829	0	0
1.47	10.36029815020628	24.50727548499753	-110.7575039524755	0	0.9399999998679526	0	45.13094560594797	-10.04848766903122	0	60.37320057525632	1.053711130005157	-5.008890664783901	0	0	45.13094560594797	-10.04848766903122	0	60.37320057525632	1.053711130005157	-5.008890664783901	0	0	56.44341621463234	-0.1367108330862802	40.77117512721559	-21.11744562179938	11.88060521129914	-14.94223790570496	5.384514275890807	0.5787741849061562	0	0	0	-12.23075571409431	0	89.43918316895781	0.5787741849061562	0	0
